<svg width="21" height="22" viewBox="0 0 21 22" fill="none" xmlns="http://www.w3.org/2000/svg">
<path fill-rule="evenodd" clip-rule="evenodd" d="M18.8064 6.62337L18.184 5.54328C17.6574 4.62936 16.4905 4.31408 15.5753 4.83847V4.83847C15.1397 5.0951 14.6198 5.16791 14.1305 5.04084C13.6411 4.91378 13.2224 4.59727 12.9666 4.16113C12.8021 3.8839 12.7137 3.56815 12.7103 3.2458V3.2458C12.7251 2.72898 12.5302 2.22816 12.1698 1.85743C11.8094 1.48669 11.3143 1.27762 10.7973 1.27783H9.54326C9.03672 1.27783 8.55107 1.47967 8.19376 1.8387C7.83644 2.19773 7.63693 2.68435 7.63937 3.19088V3.19088C7.62435 4.23668 6.77224 5.07657 5.72632 5.07646C5.40397 5.07311 5.08821 4.9847 4.81099 4.82017V4.82017C3.89582 4.29577 2.72887 4.61105 2.20229 5.52497L1.5341 6.62337C1.00817 7.53615 1.31916 8.70236 2.22975 9.23207V9.23207C2.82166 9.5738 3.18629 10.2053 3.18629 10.8888C3.18629 11.5723 2.82166 12.2038 2.22975 12.5456V12.5456C1.32031 13.0717 1.00898 14.2351 1.5341 15.1451V15.1451L2.16568 16.2344C2.4124 16.6795 2.82636 17.0081 3.31595 17.1472C3.80554 17.2863 4.3304 17.2247 4.77438 16.9758V16.9758C5.21084 16.7211 5.73094 16.6513 6.2191 16.782C6.70725 16.9126 7.12299 17.2328 7.37392 17.6714C7.53845 17.9486 7.62686 18.2644 7.63021 18.5868V18.5868C7.63021 19.6433 8.48671 20.4998 9.54326 20.4998H10.7973C11.8502 20.4998 12.7053 19.6489 12.7103 18.5959V18.5959C12.7079 18.0878 12.9086 17.5998 13.2679 17.2405C13.6272 16.8812 14.1152 16.6804 14.6233 16.6829C14.9449 16.6915 15.2594 16.7795 15.5387 16.9392V16.9392C16.4515 17.4651 17.6177 17.1541 18.1474 16.2435V16.2435L18.8064 15.1451C19.0615 14.7073 19.1315 14.1858 19.001 13.6961C18.8704 13.2065 18.55 12.7891 18.1108 12.5364V12.5364C17.6715 12.2837 17.3511 11.8663 17.2206 11.3767C17.09 10.8871 17.16 10.3656 17.4151 9.92772C17.581 9.63809 17.8211 9.39795 18.1108 9.23207V9.23207C19.0159 8.70265 19.3262 7.54325 18.8064 6.63252V6.63252V6.62337Z" stroke="#6C6C6C" stroke-width="2" stroke-linecap="round" stroke-linejoin="round"/>
<circle cx="10.1752" cy="10.8886" r="2.63616" stroke="#6C6C6C" stroke-width="2" stroke-linecap="round" stroke-linejoin="round"/>
</svg>
