<svg xmlns="http://www.w3.org/2000/svg" xmlns:xlink="http://www.w3.org/1999/xlink" viewBox="0,0,256,256" width="64px" height="64px"><g fill="#ffffff" fill-rule="nonzero" stroke="none" stroke-width="1" stroke-linecap="butt" stroke-linejoin="miter" stroke-miterlimit="10" stroke-dasharray="" stroke-dashoffset="0" font-family="none" font-weight="none" font-size="none" text-anchor="none" style="mix-blend-mode: normal"><g transform="scale(2,2)"><path d="M79.33594,15.66797c-1.27148,-0.0457 -2.56094,0.09414 -3.83594,0.43164c-3.4,0.9 -6.20039,3.09961 -7.90039,6.09961l-3.59961,6.5c-0.8,1.4 -0.30039,3.30156 1.09961,4.10156l17.30078,10c0.5,0.3 1,0.39844 1.5,0.39844c0.3,0 0.49883,0.00039 0.79883,-0.09961c0.8,-0.2 1.40078,-0.70039 1.80078,-1.40039l3.69922,-6.5c1.7,-3 2.20078,-6.49844 1.30078,-9.89844c-0.9,-3.4 -3.09961,-6.20039 -6.09961,-7.90039c-1.875,-1.0625 -3.94531,-1.65625 -6.06445,-1.73242zM60.09766,38.12695c-0.96875,0.07422 -1.89844,0.59766 -2.39844,1.47266l-30.19922,52.40039c-3.4,5.8 -5.29922,12.30039 -5.69922,18.90039l-0.80078,12.90039c-0.1,1.1 0.5,2.19883 1.5,2.79883c0.5,0.3 1,0.40039 1.5,0.40039c0.6,0 1.19922,-0.2 1.69922,-0.5l10.80078,-7.09961c5.5,-3.7 10.2,-8.60039 13.5,-14.40039l30.30078,-52.40039c0.8,-1.4 0.29844,-3.29961 -1.10156,-4.09961c-1.4,-0.8 -3.29961,-0.30039 -4.09961,1.09961l-30.29883,52.40039c-2.9,4.9 -6.90117,9.20039 -11.70117,12.40039l-5.79883,3.79883l0.39844,-6.89844c0.3,-5.7 2.00039,-11.30078 4.90039,-16.30078l30.30078,-52.40039c0.8,-1.4 0.30039,-3.29961 -1.09961,-4.09961c-0.525,-0.3 -1.12188,-0.41758 -1.70312,-0.37305zM49,121c-1.7,0 -3,1.3 -3,3c0,1.7 1.3,3 3,3h40c1.7,0 3,-1.3 3,-3c0,-1.7 -1.3,-3 -3,-3zM104,121c-1.65685,0 -3,1.34315 -3,3c0,1.65685 1.34315,3 3,3c1.65685,0 3,-1.34315 3,-3c0,-1.65685 -1.34315,-3 -3,-3z"></path></g></g></svg>